<svg width="70" height="61" viewBox="0 0 70 61" fill="none" xmlns="http://www.w3.org/2000/svg">
<path d="M18.6 31.0791C18.6 29.0958 18.5 27.4458 18.3 26.1291C18.1167 24.8124 17.825 23.7708 17.425 23.0041C17.025 22.2208 16.525 21.6708 15.925 21.3541C15.325 21.0374 14.6167 20.8791 13.8 20.8791H12V41.2791H13.8C14.6167 41.2791 15.325 41.1291 15.925 40.8291C16.525 40.5124 17.025 39.9708 17.425 39.2041C17.825 38.4208 18.1167 37.3708 18.3 36.0541C18.5 34.7374 18.6 33.0791 18.6 31.0791ZM14.05 13.5791C18.9 13.5791 22.4667 15.0374 24.75 17.9541C27.05 20.8541 28.2 25.2291 28.2 31.0791C28.2 36.9624 27.05 41.3541 24.75 44.2541C22.4667 47.1374 18.9 48.5791 14.05 48.5791H3.45C3.18333 48.5791 2.95833 48.4874 2.775 48.3041C2.59167 48.1208 2.5 47.8958 2.5 47.6291V14.5291C2.5 14.2624 2.59167 14.0374 2.775 13.8541C2.95833 13.6708 3.18333 13.5791 3.45 13.5791H14.05ZM53.366 40.5291C53.7327 40.3958 54.041 40.3958 54.291 40.5291C54.541 40.6458 54.6827 40.8958 54.716 41.2791L55.091 46.7791C55.1244 47.1124 55.0744 47.3791 54.941 47.5791C54.8077 47.7624 54.5993 47.9124 54.316 48.0291C53.3327 48.4124 52.2327 48.6958 51.016 48.8791C49.816 49.0791 48.5077 49.1791 47.091 49.1791C44.4577 49.1791 42.1327 48.7708 40.116 47.9541C38.0993 47.1208 36.4077 45.9291 35.041 44.3791C33.6743 42.8124 32.641 40.9124 31.941 38.6791C31.241 36.4458 30.891 33.9124 30.891 31.0791C30.891 28.2624 31.2327 25.7374 31.916 23.5041C32.616 21.2708 33.641 19.3791 34.991 17.8291C36.341 16.2624 38.016 15.0624 40.016 14.2291C42.016 13.3958 44.3243 12.9791 46.941 12.9791C48.3077 12.9791 49.6244 13.0874 50.891 13.3041C52.1577 13.5208 53.266 13.8291 54.216 14.2291C54.416 14.3124 54.5827 14.4458 54.716 14.6291C54.866 14.7958 54.9243 15.0291 54.891 15.3291L54.541 20.8541C54.5077 21.2374 54.3577 21.4958 54.091 21.6291C53.841 21.7458 53.5327 21.7374 53.166 21.6041C52.466 21.3541 51.7077 21.1541 50.891 21.0041C50.091 20.8541 49.241 20.7791 48.341 20.7791C45.9577 20.7791 44.116 21.6458 42.816 23.3791C41.5327 25.0958 40.891 27.6624 40.891 31.0791C40.891 34.5124 41.5493 37.0874 42.866 38.8041C44.1827 40.5208 46.0577 41.3791 48.491 41.3791C49.391 41.3791 50.2327 41.3124 51.016 41.1791C51.816 41.0458 52.5994 40.8291 53.366 40.5291Z" fill="white"/>
<circle cx="65" cy="43.5791" r="5" fill="#AF0404"/>
</svg>
